PathFileType	4	(X/Y/Z)	paretic_pre_fa151403.trc
DataRate	CameraRate	NumFrames	NumMarkers	Units	OrigDataRate	OrigDataStartFrame	OrigNumFrames
58.68	58.68	19	11	cm	58.68	128	1017
Frame#	Time	NOSE			LEFT_SHOULDER			RIGHT_SHOULDER			LEFT_ELBOW			RIGHT_ELBOW			LEFT_WRIST			RIGHT_WRIST			LEFT_HIP			RIGHT_HIP			LEFT_INDEX			RIGHT_INDEX		
		X1	Y1	Z1	X2	Y2	Z2	X3	Y3	Z3	X4	Y4	Z4	X5	Y5	Z5	X6	Y6	Z6	X7	Y7	Z7	X8	Y8	Z8	X9	Y9	Z9	X10	Y10	Z10	X11	Y11	Z11
157	2.6757131710362048	10.189303	-60.550075	-29.613542	13.936580	-49.545938	9.590103	-21.494989	-59.946282	-2.304451	22.352515	-22.442399	8.225001	-36.280391	-22.127209	-14.812258	36.736792	-7.800250	-2.734736	-25.599025	-9.641078	-32.425148	10.191688	-2.146753	11.776044	-9.775195	1.611836	-11.366436	37.675748	-6.588007	-7.961509	-11.491482	-16.324986	-42.568084
158	2.6927559300873907	10.182729	-60.559335	-29.750211	13.893713	-49.585369	9.579815	-21.501550	-59.952330	-2.534878	22.257955	-22.442470	8.262517	-36.382312	-22.128569	-14.827969	36.762661	-7.692052	-2.449821	-25.572726	-9.502305	-32.125796	10.191384	-2.146780	11.786099	-9.774714	1.612030	-11.377902	37.801056	-6.396000	-7.578575	-11.334947	-16.079962	-42.196877
159	2.7097986891385766	9.967394	-60.538259	-30.135658	13.894926	-49.519305	9.251121	-21.502397	-59.941806	-2.710298	22.262078	-22.302227	7.706035	-36.303884	-22.089136	-14.843901	36.631123	-7.683879	-3.191396	-25.351796	-9.448858	-32.153696	10.185290	-2.143147	11.786702	-9.769003	1.608308	-11.379321	37.567207	-6.424235	-8.353976	-11.120991	-16.081462	-42.290609
160	2.726841448189763	9.967174	-60.537366	-30.305638	13.910307	-49.505353	9.187839	-21.487001	-59.935836	-2.914558	22.320605	-22.264703	7.568668	-36.255375	-22.062396	-15.007860	36.727065	-7.658490	-3.421360	-25.122996	-9.379378	-32.219717	10.181246	-2.140772	11.793520	-9.765209	1.605409	-11.387331	37.666825	-6.408183	-8.597268	-10.849188	-16.003556	-42.424475
161	2.743884207240949	9.959292	-60.463820	-31.190581	13.954098	-49.503968	8.849026	-21.457162	-59.923078	-3.615100	22.323261	-22.256548	7.368403	-36.255794	-22.016207	-15.786292	36.808335	-7.663005	-3.555334	-24.867726	-9.278236	-32.928573	10.181201	-2.136013	11.803604	-9.765305	1.601269	-11.398614	37.833627	-6.422508	-8.737384	-10.362714	-15.856528	-43.071654
162	2.7609269662921347	9.960176	-60.465075	-30.089588	13.955550	-49.567351	10.341507	-21.431551	-59.968220	-2.761788	22.310800	-22.343966	9.257648	-36.194945	-22.029492	-14.756934	36.808218	-7.715953	-1.359328	-24.653199	-9.244684	-31.463954	10.184769	-2.118202	11.823890	-9.768057	1.584466	-11.421463	37.834415	-6.447669	-6.469356	-10.074897	-15.729866	-41.561838
163	2.7779697253433207	9.932682	-60.547012	-29.725662	13.891798	-49.638102	10.447313	-21.458222	-59.979535	-2.660391	22.303178	-22.391987	9.359664	-36.251301	-22.029224	-14.433064	36.795732	-7.726237	-1.355754	-24.675510	-9.204794	-30.642483	10.185056	-2.117764	11.836296	-9.768043	1.584136	-11.435763	37.805442	-6.460629	-6.472395	-10.124855	-15.670156	-40.582282
164	2.795012484394507	9.916840	-60.536569	-29.721332	13.642544	-49.624219	10.416931	-21.610985	-59.961071	-2.664511	21.913143	-22.242939	9.373497	-36.316045	-21.940488	-14.378379	36.675408	-7.589143	-0.849724	-24.691968	-8.964494	-30.879327	10.183977	-2.117542	11.834952	-9.767497	1.583758	-11.434565	37.778586	-6.394082	-5.917234	-10.141327	-15.498107	-40.908294
165	2.812055243445693	9.947886	-60.541525	-27.961835	13.658691	-49.609357	11.112072	-21.591034	-59.960445	-1.796533	21.938041	-22.217675	9.880951	-36.312540	-21.935533	-13.530528	36.686017	-7.564697	-0.487534	-24.704436	-8.939880	-30.160142	10.182813	-2.110022	11.834890	-9.765989	1.574494	-11.434992	37.779984	-6.332899	-5.607440	-10.171604	-15.434299	-40.248191
166	2.829098002496879	10.758040	-61.125878	-28.026443	13.984275	-49.784254	11.025359	-21.023376	-60.345584	-1.813950	22.011060	-22.259104	9.802870	-35.860907	-22.370275	-13.591047	36.874602	-8.143537	-0.609948	-24.264247	-9.151717	-30.341602	10.177800	-2.099491	11.854138	-9.760638	1.564190	-11.459119	38.056188	-7.305377	-5.738761	-9.749983	-15.511313	-40.493412
167	2.8461407615480647	10.829386	-61.119489	-28.142583	13.930884	-49.811195	10.999207	-20.967989	-60.274248	-2.307108	21.731597	-22.302567	9.735772	-35.836126	-22.317514	-13.723529	36.655717	-8.119844	-0.707758	-24.212493	-9.111655	-30.419453	10.171446	-2.100319	11.877522	-9.752946	1.566509	-11.483384	37.958569	-7.257739	-5.835407	-9.695536	-15.464990	-40.445532
168	2.863183520599251	10.776123	-61.106028	-28.752579	13.925233	-49.809875	10.372546	-20.974333	-60.250098	-2.658482	21.735774	-22.302782	8.946571	-35.836642	-22.263335	-14.588757	36.653974	-8.039838	-1.782681	-24.240037	-9.118163	-31.848534	10.170233	-2.101808	11.878277	-9.751646	1.568819	-11.483942	37.956587	-7.073892	-6.979848	-9.744525	-15.479697	-41.942310
169	2.880226279650437	10.673994	-61.135455	-28.799774	13.896354	-49.825992	10.344909	-21.103193	-60.248347	-2.656246	21.759194	-22.315536	8.930786	-35.987092	-22.246365	-14.353069	36.637175	-8.006541	-1.841675	-24.426855	-8.984119	-31.261805	10.174112	-2.103217	11.882114	-9.754573	1.570815	-11.487727	37.841523	-7.004337	-7.042480	-9.951022	-15.324627	-41.335870
170	2.897269038701623	10.633119	-61.119870	-28.573105	13.807806	-49.753706	10.476918	-21.177782	-60.193270	-2.354378	21.698728	-22.246767	9.177563	-35.989508	-22.111799	-13.989255	36.612671	-7.964943	-1.385377	-24.440362	-8.868971	-30.980037	10.172133	-2.101732	11.882443	-9.752970	1.568759	-11.488199	37.831441	-6.965644	-6.558483	-9.982043	-15.273279	-41.143239
171	2.914311797752809	10.303763	-61.204013	-28.536373	13.741655	-49.780732	10.451919	-21.357163	-60.203615	-2.114169	21.816182	-22.439539	9.172884	-36.185360	-22.126419	-13.745197	36.617898	-7.961062	-1.396823	-24.589291	-8.892379	-30.683458	10.171476	-2.102836	11.880739	-9.751867	1.570405	-11.486224	37.772348	-6.851880	-6.567527	-10.095432	-15.284965	-40.766451
172	2.931354556803995	10.391724	-61.147372	-28.601710	13.820683	-49.546766	10.290276	-21.335201	-60.100659	-2.260099	21.842530	-22.026306	8.865764	-36.027859	-22.036105	-13.940858	36.627557	-7.954131	-1.903710	-24.491353	-8.863582	-30.989005	10.166020	-2.103061	11.881279	-9.747370	1.570493	-11.486832	37.784858	-6.909416	-7.120004	-10.053907	-15.294143	-41.152727
173	2.948397315855181	10.510658	-61.300551	-27.728375	13.823432	-49.551401	10.731863	-21.290202	-60.146220	-2.160712	22.162848	-22.074951	9.322037	-36.011714	-22.090320	-13.961246	36.980117	-7.949485	-1.399548	-24.490999	-8.866841	-31.031255	10.160920	-2.093808	11.893529	-9.741951	1.559656	-11.496700	38.026123	-6.886383	-6.585394	-10.032306	-15.255443	-41.189937
174	2.965440074906367	10.717340	-61.103542	-29.491054	14.074007	-49.386524	9.641197	-21.139214	-60.071383	-3.158293	22.291878	-21.930529	8.136841	-35.903502	-22.047610	-15.031626	37.155148	-7.871666	-2.751820	-24.376699	-8.848544	-32.299123	10.158465	-2.092786	11.897885	-9.739845	1.558924	-11.501231	38.234647	-6.872615	-7.983238	-9.913612	-15.262529	-42.518316
175	2.982482833957553	10.667903	-61.090228	-30.042192	14.106800	-49.382682	9.363103	-21.122762	-60.062195	-3.348766	22.284986	-21.923112	7.844425	-35.944334	-22.037543	-15.029092	36.920690	-7.866878	-3.315132	-24.388606	-8.790138	-32.001592	10.158974	-2.091339	11.901328	-9.740018	1.558167	-11.505342	37.890633	-6.868419	-8.555814	-9.930262	-15.179191	-42.156406
